<mxfile host="Electron" modified="2023-05-15T09:39:57.052Z" agent="Mozilla/5.0 (Windows NT 10.0; Win64; x64) AppleWebKit/537.36 (KHTML, like Gecko) draw.io/21.2.8 Chrome/112.0.5615.165 Electron/24.2.0 Safari/537.36" etag="LgzOHqrgnvcE-TY0KDIY" version="21.2.8" type="device">
  <diagram name="Страница 1" id="IMW9DEoFK1bc6sumNbSN">
    <mxGraphModel dx="2053" dy="1188" grid="1" gridSize="10" guides="1" tooltips="1" connect="1" arrows="1" fold="1" page="1" pageScale="1" pageWidth="827" pageHeight="1169" math="0" shadow="0">
      <root>
        <mxCell id="0" />
        <mxCell id="1" parent="0" />
        <mxCell id="aBortwi3U-iXQjHzd57l-1" value="Пользователь" style="shape=umlActor;verticalLabelPosition=bottom;verticalAlign=top;html=1;outlineConnect=0;fontSize=16;" parent="1" vertex="1">
          <mxGeometry x="30" y="330" width="50" height="80" as="geometry" />
        </mxCell>
        <mxCell id="aBortwi3U-iXQjHzd57l-14" style="edgeStyle=orthogonalEdgeStyle;rounded=0;orthogonalLoop=1;jettySize=auto;html=1;entryX=0;entryY=0.5;entryDx=0;entryDy=0;" parent="1" target="aBortwi3U-iXQjHzd57l-4" edge="1">
          <mxGeometry relative="1" as="geometry">
            <mxPoint x="50" y="310" as="sourcePoint" />
            <Array as="points">
              <mxPoint x="50" y="150" />
            </Array>
          </mxGeometry>
        </mxCell>
        <mxCell id="aBortwi3U-iXQjHzd57l-15" value="Сферическая&lt;br&gt;&amp;nbsp;панорама &lt;br&gt;окружения" style="edgeLabel;html=1;align=center;verticalAlign=middle;resizable=0;points=[];fontSize=12;" parent="aBortwi3U-iXQjHzd57l-14" vertex="1" connectable="0">
          <mxGeometry x="-0.1538" y="2" relative="1" as="geometry">
            <mxPoint x="31" y="-28" as="offset" />
          </mxGeometry>
        </mxCell>
        <mxCell id="aBortwi3U-iXQjHzd57l-16" value="Трехмерная&lt;br style=&quot;font-size: 12px;&quot;&gt;модель" style="edgeStyle=orthogonalEdgeStyle;rounded=0;orthogonalLoop=1;jettySize=auto;html=1;entryX=0;entryY=0.25;entryDx=0;entryDy=0;fontSize=12;" parent="1" target="aBortwi3U-iXQjHzd57l-7" edge="1">
          <mxGeometry x="-0.6825" y="20" relative="1" as="geometry">
            <Array as="points">
              <mxPoint x="110" y="380" />
              <mxPoint x="440" y="380" />
              <mxPoint x="440" y="590" />
            </Array>
            <mxPoint as="offset" />
            <mxPoint x="110" y="380" as="sourcePoint" />
          </mxGeometry>
        </mxCell>
        <mxCell id="aBortwi3U-iXQjHzd57l-19" value="Сферическая панорама &lt;br&gt;глубины окружения" style="edgeStyle=orthogonalEdgeStyle;rounded=0;orthogonalLoop=1;jettySize=auto;html=1;entryX=0;entryY=0.5;entryDx=0;entryDy=0;fontSize=12;" parent="1" target="aBortwi3U-iXQjHzd57l-5" edge="1">
          <mxGeometry x="-0.3448" y="20" relative="1" as="geometry">
            <Array as="points">
              <mxPoint x="80" y="240" />
              <mxPoint x="480" y="240" />
              <mxPoint x="480" y="300" />
            </Array>
            <mxPoint as="offset" />
            <mxPoint x="80" y="310" as="sourcePoint" />
          </mxGeometry>
        </mxCell>
        <mxCell id="aBortwi3U-iXQjHzd57l-20" value="&lt;font style=&quot;font-size: 12px;&quot;&gt;Карта глубины кадра&lt;/font&gt;" style="edgeStyle=orthogonalEdgeStyle;rounded=0;orthogonalLoop=1;jettySize=auto;html=1;entryX=0;entryY=0.5;entryDx=0;entryDy=0;" parent="1" target="aBortwi3U-iXQjHzd57l-6" edge="1">
          <mxGeometry x="-0.5185" y="20" relative="1" as="geometry">
            <Array as="points">
              <mxPoint x="110" y="350" />
              <mxPoint x="110" y="310" />
              <mxPoint x="460" y="310" />
              <mxPoint x="460" y="420" />
            </Array>
            <mxPoint x="100" y="350" as="sourcePoint" />
            <mxPoint as="offset" />
          </mxGeometry>
        </mxCell>
        <mxCell id="aBortwi3U-iXQjHzd57l-11" value="Обработанные&lt;br style=&quot;font-size: 12px;&quot;&gt;снимки&lt;br style=&quot;font-size: 12px;&quot;&gt;окружения" style="edgeStyle=orthogonalEdgeStyle;rounded=0;orthogonalLoop=1;jettySize=auto;html=1;exitX=0.5;exitY=1;exitDx=0;exitDy=0;entryX=0.5;entryY=0;entryDx=0;entryDy=0;fontSize=12;" parent="1" source="aBortwi3U-iXQjHzd57l-4" target="aBortwi3U-iXQjHzd57l-5" edge="1">
          <mxGeometry y="50" relative="1" as="geometry">
            <mxPoint as="offset" />
          </mxGeometry>
        </mxCell>
        <mxCell id="aBortwi3U-iXQjHzd57l-4" value="Модуль&lt;br&gt;обработки изображений" style="rounded=0;whiteSpace=wrap;html=1;fontSize=16;" parent="1" vertex="1">
          <mxGeometry x="530" y="110" width="140" height="80" as="geometry" />
        </mxCell>
        <mxCell id="aBortwi3U-iXQjHzd57l-12" value="Координаты&lt;br style=&quot;font-size: 12px;&quot;&gt;источников&lt;br&gt;света" style="edgeStyle=orthogonalEdgeStyle;rounded=0;orthogonalLoop=1;jettySize=auto;html=1;exitX=0.5;exitY=1;exitDx=0;exitDy=0;entryX=0.75;entryY=0;entryDx=0;entryDy=0;fontSize=12;" parent="1" source="aBortwi3U-iXQjHzd57l-5" target="aBortwi3U-iXQjHzd57l-7" edge="1">
          <mxGeometry x="0.1368" y="50" relative="1" as="geometry">
            <Array as="points">
              <mxPoint x="600" y="350" />
              <mxPoint x="730" y="350" />
              <mxPoint x="730" y="550" />
              <mxPoint x="635" y="550" />
            </Array>
            <mxPoint as="offset" />
          </mxGeometry>
        </mxCell>
        <mxCell id="aBortwi3U-iXQjHzd57l-5" value="Модуль поиска положения источников света" style="rounded=0;whiteSpace=wrap;html=1;fontSize=16;" parent="1" vertex="1">
          <mxGeometry x="530" y="260" width="140" height="80" as="geometry" />
        </mxCell>
        <mxCell id="aBortwi3U-iXQjHzd57l-13" value="Полигональная&lt;br&gt;сетка окружения" style="edgeStyle=orthogonalEdgeStyle;rounded=0;orthogonalLoop=1;jettySize=auto;html=1;exitX=0.5;exitY=1;exitDx=0;exitDy=0;fontSize=12;" parent="1" source="aBortwi3U-iXQjHzd57l-6" target="aBortwi3U-iXQjHzd57l-7" edge="1">
          <mxGeometry x="-0.2727" y="50" relative="1" as="geometry">
            <mxPoint as="offset" />
          </mxGeometry>
        </mxCell>
        <mxCell id="aBortwi3U-iXQjHzd57l-6" value="Модуль построения геометрии окружения" style="rounded=0;whiteSpace=wrap;html=1;fontSize=16;" parent="1" vertex="1">
          <mxGeometry x="530" y="380" width="140" height="80" as="geometry" />
        </mxCell>
        <mxCell id="aBortwi3U-iXQjHzd57l-8" value="Конечное&lt;br style=&quot;font-size: 12px;&quot;&gt;изображение" style="edgeStyle=orthogonalEdgeStyle;rounded=0;orthogonalLoop=1;jettySize=auto;html=1;exitX=0;exitY=0.5;exitDx=0;exitDy=0;fontSize=12;" parent="1" source="aBortwi3U-iXQjHzd57l-7" edge="1">
          <mxGeometry x="0.6479" y="22" relative="1" as="geometry">
            <Array as="points">
              <mxPoint x="400" y="610" />
              <mxPoint x="400" y="410" />
              <mxPoint x="110" y="410" />
            </Array>
            <mxPoint as="offset" />
            <mxPoint x="100" y="410" as="targetPoint" />
          </mxGeometry>
        </mxCell>
        <mxCell id="aBortwi3U-iXQjHzd57l-7" value="Графический&lt;br style=&quot;font-size: 16px;&quot;&gt;движок" style="rounded=0;whiteSpace=wrap;html=1;fontSize=16;" parent="1" vertex="1">
          <mxGeometry x="530" y="570" width="140" height="80" as="geometry" />
        </mxCell>
        <mxCell id="u7bZcqHCWRtz33ml6RuA-1" value="" style="swimlane;startSize=0;" vertex="1" parent="1">
          <mxGeometry x="310" y="40" width="510" height="630" as="geometry" />
        </mxCell>
        <mxCell id="u7bZcqHCWRtz33ml6RuA-2" value="&lt;font style=&quot;font-size: 20px;&quot;&gt;Приложение&lt;/font&gt;" style="text;html=1;align=center;verticalAlign=middle;resizable=0;points=[];autosize=1;strokeColor=none;fillColor=none;" vertex="1" parent="u7bZcqHCWRtz33ml6RuA-1">
          <mxGeometry x="190" width="140" height="40" as="geometry" />
        </mxCell>
      </root>
    </mxGraphModel>
  </diagram>
</mxfile>
